<svg xmlns="http://www.w3.org/2000/svg" version="1.1" xmlns:xlink="http://www.w3.org/1999/xlink" xmlns:svgjs="http://svgjs.dev/svgjs" width="1000" height="750" viewBox="0 0 1000 750"><rect width="1000" height="750" fill="#ffffff"></rect><g transform="matrix(0.5191111111111111,0,0,0.5191111111111111,240.44444444444446,83)"><svg viewBox="0 0 320 360" data-background-color="#ffffff" preserveAspectRatio="xMidYMid meet" height="1125" width="1000" xmlns="http://www.w3.org/2000/svg" xmlns:xlink="http://www.w3.org/1999/xlink"><g id="tight-bounds" transform="matrix(1,0,0,1,0,0)"><svg viewBox="0 0 320 360" height="360" width="320"><g><svg></svg></g><g><svg viewBox="0 0 320 360" height="360" width="320"><g><path xmlns="http://www.w3.org/2000/svg" d="M165.217 303.356c-1.404-1.755-2.809-0.702-2.808-1.755-8.426 2.106-24.223-3.511-30.894-2.809 1.404-2.106-2.106-1.755-2.106-3.159-1.404 2.106-2.809 0-4.915 0.702-2.106-5.266-10.532-1.404-11.585-8.075-4.915 0-6.67-2.809-11.586-5.617 0.351-0.351 0.702-0.351 1.054-0.702-2.457-0.351-2.457-1.755-4.564-1.755l0.702-1.405c-3.862-0.702-5.266-6.67-10.883-8.776-1.755-0.351-5.617-6.319-7.723-7.724-1.053-0.702-2.809-0.702-0.352-1.053-0.351-0.351-0.351-1.053 0-1.404-2.457-0.702-2.809-2.809-5.968-3.862-0.351-1.053 0.702-1.755 0-2.457-0.702-0.351-1.755 0.351-2.457 0-0.351 6.319 6.67 7.021 8.777 12.287-0.702-0.702-1.755-2.809-2.458-1.404-0.351 1.053 2.809 4.915 2.809 2.808-1.053 0.702-1.404-1.053-0.703-1.404 1.053 1.755 3.16 1.404 3.16 2.809-1.053 1.053-2.457-1.053-2.106 0.702 3.16 1.755 2.809 3.511 4.563 5.968-1.404-1.755-1.755 1.404-3.159 0-0.351-5.266-6.319-4.213-6.319-9.479-0.702-1.755-1.404-0.351-2.458-1.053 1.404-1.404-4.213-6.319-4.213-4.564-1.755-2.106-0.702-2.809-1.053-4.213-1.404-0.351-0.351 1.404-1.404 0.351 1.404-2.457-1.755-5.617-3.862-8.074l1.405-0.702c-2.457-1.404-2.809-4.213-4.564-7.373-2.106 3.16 4.213 10.181 3.159 11.585 0 0.351 2.457 3.16 3.16 4.564 2.809 4.915 4.915 10.883 8.777 13.692-0.702-0.351-0.351-2.457 0.702-1.404 0 1.053-0.702 2.106-0.702 3.159 2.106 2.106 3.862 3.862 5.968 5.968-4.564-2.809-9.128-5.617-12.288-9.83 1.755-0.351 3.511 2.809 4.915 2.458-3.511-2.809-2.457-3.862-3.861-7.372-1.404-1.053 0.351 1.404-1.054 1.755-4.564-4.213-8.075-6.67-10.181-10.532 0.351-0.351 0.702-0.702 0.703-1.404-0.351-0.351-0.351-0.351-0.703-0.702 2.106 2.106 2.809 3.862 5.266 4.212-1.053-1.053 0-1.404-1.404-2.457-0.702-1.404-1.755 0.702-2.457-0.351 0.702-1.053 0-2.457 0-3.511-0.702 0-1.404 0-1.756-1.053-0.702-0.351-1.053 0-1.404 0.702-0.351-0.351-0.351-1.053-0.702-1.404v-0.351c-0.351-0.351-0.702-1.053-1.053-1.405-2.809-7.372-4.564-17.202-8.426-23.521 1.053-4.213-0.702-12.638-1.755-14.745 1.053-1.755 0.351-9.83-0.351-11.234-1.755 0.702 0.351 4.564-1.404 5.617-1.755-7.723 1.053-16.5 0.351-23.521 0.702 0 1.404 0 1.404-0.351-1.053-1.053 0.702-3.16 0.351-5.617 1.404-3.16-3.16 4.564-3.16 7.723-0.351 0.702-1.755 0-1.404 1.756 0 2.457 0.702 7.372-0.702 10.883-0.702 0-0.702-0.702-1.404-0.351-0.351 1.755-0.702 3.862-1.053 5.617-0.351-0.702-0.702-1.755-0.703-2.107-1.755-8.777 0-18.958-0.702-26.33 1.404 0 1.404-2.106 2.458-2.808-0.351 2.809-1.053 6.319 0.702 7.021 1.404-13.692 4.213-28.787 10.532-43.532 4.564-10.883 11.234-21.766 19.308-30.543 0.702 1.053-0.351 3.511 0 4.564 7.021-7.372 11.585-16.149 19.309-21.064 0.351 1.755-3.16 3.16-3.16 4.564 3.16-3.16 4.213-2.106 7.724-3.159 1.053-1.404-1.404 0-1.756-1.405 2.106-1.404 3.511-3.16 4.915-4.212 0 0.351-0.351 0.351-0.351 0.702 3.862-1.053 4.213-3.16 7.022-3.862-0.351-0.351-1.053-0.702-2.107-0.351 0.702-0.351 1.755-1.053 2.809-1.404-0.351 0-0.351 0.351-0.702 0.351 2.106-1.053 0.351 0.351 0.351 1.053 0.351 0 0.702-0.351 0.702-0.351-2.106 1.404-3.511 2.106-4.213 4.564 1.053-0.702 1.404 0 2.809-1.054 1.404-0.702-0.351-1.755 0.702-2.457 1.053 0.702 2.457 0.351 3.51 0.351 0-0.702 0.351-1.404 1.054-1.755 0.351-0.702 0-1.053-0.352-1.053 0.351-0.351 0.702-0.351 1.405-0.703 0 0 0.351 0 0.351 0.351 5.968-2.809 12.638-5.266 18.957-7.372 3.862-0.351 8.777-0.351 10.883-2.808-0.702 0-1.404 0.351-1.755 0 0.351 0 1.053-0.351 1.404-0.351 0.702 0.702 1.755 0 0.702 1.404 0.351 0 0.351 0 0.703-0.351 0 0.351 0 0.351 0.351 0.702 0.351 0 0.702-0.351 1.053-1.053 0.351 0 0.702 0 1.053-0.351l-0.351 0.351c2.809-0.702 5.266-0.351 9.128-1.054 0-0.351 0-0.702 0-1.053 0.702 0 1.053-0.351 1.755-0.351v0.351c1.404-0.702 2.809 0.702 2.808 0 0.351 0 0.351 0 0.703 0 0 0.702-0.351 1.053-0.351 1.405 1.755 0 2.809 0 3.51-1.054-0.351-0.351-0.702-0.351-1.053-0.351 0.702 0 1.404-0.351 2.106-0.702 1.053 0.351 1.404 0.702 1.405 2.107 1.755-3.16 7.372 0.702 9.829 0 1.053 0 0.702-1.404 1.405-2.107 0.351 0 0.702 0 1.053 0 1.755 1.404 4.213 2.809 7.372 3.16-2.809-0.702 0.351-1.053 0.702-1.405-0.702 0-0.702-0.351-0.702-0.702 1.053 0 2.106 0.351 3.16 0.351 0 0.702 0.351 1.053 1.053 1.054 0.702 0 0.702-0.351 0.702-1.054 1.053 0 1.755 0 2.809 0.351-0.351 1.404 1.755 1.755 2.457 2.809-2.809-0.702-5.968-1.755-7.021 0 11.234 2.457 23.521 5.968 35.457 11.936 0 0 0 0 0 0.351h0.352c2.106 1.053 4.213 2.106 6.319 3.16 1.404 0.702 2.457 1.404 3.861 2.457 0 0.351 0 0.702 0.703 0.702h0.351c1.404 1.053 2.809 1.755 4.212 2.809 1.404 2.106 2.809 4.915 5.266 4.213 5.266 8.075 10.883 11.234 15.447 19.659 0.351-1.404 1.404 3.16 3.16 3.511-2.809-0.351 1.755 1.755-1.053 1.404 2.457 2.457 3.16 3.511 3.51 6.319-0.702-1.404-1.053-1.755-1.404-0.351-0.351 2.106 2.457-0.351 3.511 1.756-2.106 0-1.404 1.404-1.054 3.159 1.053-1.053 0.702-2.106 1.756-1.755 1.404 1.404-0.702 1.755-0.351 2.809 1.053-1.404 1.404-0.702 2.808 0-1.755 0.351 1.053 2.809-1.053 1.755 1.404 1.755 1.755 2.809 1.053 4.564-1.404-2.106-0.351-3.511-2.457-3.16 4.213 3.511 2.106 11.585 7.021 12.287-3.16 0.702 0 2.106-1.755 2.458 2.106 0.702 1.053 3.511 3.51 4.213-0.351 1.755-1.053 2.809-1.404 4.563 1.053 1.404 1.404 4.213 3.16 4.564-1.053 1.053-0.351 3.862-1.404 4.915 1.404-0.702 2.106-0.702 3.159 0.702-1.755 1.404-0.351 2.809-1.404 3.16 3.16 8.075-0.702 24.575 1.053 30.894-2.106-1.053-1.404 2.457-2.808 2.457 2.457 1.053 0.351 2.809 1.404 4.564-4.915 2.809 0 10.532-6.67 12.287 0.702 4.915-2.106 7.021-4.213 12.288-0.351-0.351-0.351-0.702-0.702-1.054-0.351 2.457-1.755 2.809-1.054 4.915l-1.404-0.702c0 3.862-5.968 5.968-7.372 11.936-0.351 1.755-5.617 6.319-7.022 8.777-0.702 1.053-0.351 2.809-1.053 0.351-0.351 0.351-1.053 0.351-1.404 0.351-0.351 2.457-2.457 3.16-3.16 6.319-0.702 0.351-1.755-0.702-2.457 0.351 0 0.702 0.702 1.755 0.351 2.458 6.319-0.351 6.319-7.723 11.234-10.181-0.351 1.053-2.457 2.106-1.053 2.808 1.053 0 4.213-3.511 2.457-3.159 1.053 0.702-1.053 1.404-1.404 1.053 1.755-1.404 1.053-3.16 2.458-3.511 1.053 0.702-1.053 2.457 1.053 2.107 1.404-3.16 3.16-3.511 5.266-5.266-1.404 1.404 1.755 1.755 0.351 3.159-5.266 1.053-3.511 7.021-8.777 7.724-1.404 1.053-0.351 1.404-0.702 2.457-1.755-1.053-5.617 4.915-4.213 4.564-1.755 1.755-2.809 1.053-4.212 1.404-0.351 1.404 1.404 0.351 0.702 1.405-2.457-1.053-5.617 2.457-7.724 4.915l-1.053-1.054c-1.053 2.809-3.862 3.16-7.021 5.266 3.511 1.755 9.479-5.617 11.234-4.564 0.351 0 3.16-2.809 4.213-3.861 4.564-3.511 10.181-6.319 12.287-10.181-0.351 0.702-2.457 0.702-1.404-0.351 1.053-0.351 2.106 0.351 3.159 0.351 5.617-7.723 12.638-14.043 17.905-23.17 0.351-0.351 0.702-1.053 1.053-1.756-0.702 2.106-1.755 3.862-2.458 5.968-5.617 3.862-7.723 15.096-14.393 16.851 0.351 3.862-3.16 4.915-4.915 9.479-1.053 1.404-1.755-1.053-2.809 0.702 1.053 4.915-8.777 4.564-8.425 9.128-0.702 0.351-1.755 0.702-2.458 1.404h-0.351c-0.351 0.351-0.351 0.351-0.702 0.702-1.755 1.053-3.16 2.106-4.564 3.16-4.915 2.809-11.585 4.915-16.851 7.723v-0.351c-1.404 0.702-3.16 0.351-2.809 1.756-1.053 0.702-2.106 1.404-3.159 2.106-0.351 0-0.351 0-0.702 0 0 0-0.351-0.351-0.702-0.351-0.702 0-0.702 0-1.054 0.351-4.564 0.351-10.532 2.457-12.287 3.862-1.755-1.053-9.83 0.702-11.234 1.404 0.702 1.053 2.809 0 4.564 0-1.053 0.351-2.106 0.702-2.458 1.404-0.351 0-0.351 0-0.702 0-0.351-1.053-1.404 0-1.755-0.351h0.351c-0.351-1.404-1.404-2.106-3.16-1.755 0 0.702 0 1.053-0.351 1.755 0.702 0 2.809-1.053 2.809 0-0.351 0-0.351 0.351 0 0.351-0.702 0.702-1.755 0.702-2.458 1.054-1.404 0-3.16 0-4.563 0-0.351-0.351-0.702-0.351-1.405-0.703-0.351 0.351-1.053 0.351-1.404 0.703-2.106 0-4.564 0.351-6.319 0.702 0-0.702 0-1.404-0.702-1.405-1.053 1.404-3.16-0.351-5.617 0.352-2.457-0.702 1.404 1.053 4.915 1.755-0.351 0.351-0.702 0.702-1.756 1.053M116.068 308.271c-4.915-4.564-15.096-6.67-16.851-10.181-2.809-0.351-7.021-5.617-10.532-6.319 1.755 0 0.351-1.053 0-1.755-0.702 0.702-1.404 1.053-2.106 1.053 0-2.809-2.809-4.564-5.266-6.319 1.755 1.053 3.16 1.755 5.266 2.106 0-0.702 0-1.404 0.702-1.404 2.457 2.457 5.266 4.915 8.425 7.372 4.213 3.862 25.979 13.692 29.841 15.447 0 0-0.702 1.404-0.351 1.404 1.755 1.053 3.16-1.053 3.511 1.404-5.617 0.702-7.723-3.16-12.639-2.808M277.909 226.824v0.351 0c-0.351 0 0-0.351 0-0.351M136.079 64.281c-0.351 0.351-0.702 0.351-0.702 0.351 0-0.351 0.351-0.351 0.702-0.351M129.409 66.036c0 0.351 0 0.351 0 0 0 0.351 0 0.351 0 0 0 0.351 0 0 0 0M106.238 73.408v0c0.351-0.351 0.351-0.351 0.703-0.351-0.351 0-0.702 0.351-0.703 0.351M162.409 61.823c-0.702 0-1.053 0-1.404-0.351 0.351 0 0.702 0 1.053 0h0.351c0 0 0 0 0 0.351M168.728 62.525c-0.351-0.351-1.404-0.702-2.457-0.702 0-0.351 0.351-0.702 0.351-0.702 0.351 0 0.702 0 1.053 0 0 0 0.351 0 0.351 0.351 0 0 0 0 0-0.351 0.351 0 0.351 0 0.702 0 0.351 0.702 0.702 1.053 0 1.404M180.313 63.579c-1.755 0.351-2.809-0.351-4.564-1.405 1.053 0 2.457 0.351 3.511 0.702 0.351 0 0.702 0.351 1.053 0.703M305.292 113.43c-0.702 0.351-1.053 0.351-1.755-1.053-5.617-11.936-15.798-29.138-30.543-43.532-14.394-14.745-33.702-26.681-51.255-33.001 1.053 0.351 2.457 1.053 1.755 1.756-15.447-5.968-30.192-9.479-44.234-10.883-37.915-5.968-77.585 2.106-108.128 21.766 0.351 0.702 0.351 1.053-0.702 1.755-11.234 7.021-27.032 19.309-39.671 35.458-12.638 16.149-22.468 36.511-26.681 54.766 0.351-1.053 0.702-2.809 1.405-2.107-9.128 36.16-6.67 67.053 5.968 93.735 0.702-0.702-1.755-4.213 0.351-3.862 1.404 3.862 3.16 8.075 5.266 11.936 2.457 5.617 5.266 12.989 9.128 14.745-9.83-19.309-16.5-41.426-17.203-61.085 1.404 2.809 1.053 8.777 3.16 11.234 0.702-13.34-2.457-31.245 2.106-43.883-1.053 6.67-1.755 15.798-1.053 24.925 0 6.67 3.16 25.277 5.266 27.032-0.351-0.351-0.351-2.106 0-2.106 1.053 2.106-1.404 3.16 0.351 3.511 0-0.702 0.351-0.702 0.702-0.703 3.511 7.723 8.075 19.66 11.585 25.628 4.213 7.723 9.83 14.745 16.149 21.064 0 0.351 0.351 0.351 0.352 0.702 0.702 1.755 3.16 3.862 3.861 5.266 0.351 0.702-0.351 1.755 0 2.458 5.266 9.83 12.989 19.66 22.468 27.383 5.968 7.021 15.447 14.394 27.032 20.713 11.234 5.968 24.223 10.883 36.16 13.691 8.426 2.106 18.606 2.457 24.926 3.862 8.426 1.755 23.17-0.702 30.542-2.107 44.234-6.67 88.117-36.862 110.235-80.393 22.819-43.883 22.117-97.596 2.457-138.671" fill="#000000" fill-rule="nonzero" stroke="none" stroke-width="1" stroke-linecap="butt" stroke-linejoin="miter" stroke-miterlimit="10" stroke-dasharray="" stroke-dashoffset="0" font-family="none" font-weight="none" font-size="none" text-anchor="none" style="mix-blend-mode: normal" data-fill-palette-color="tertiary"></path></g><g transform="matrix(1,0,0,1,80,166.54902448117312)"><svg viewBox="0 0 160 26.901951037653784" height="26.901951037653784" width="160"><g><svg viewBox="0 0 160 26.901951037653784" height="26.901951037653784" width="160"><g><svg viewBox="0 0 160 26.901951037653784" height="26.901951037653784" width="160"><g><svg viewBox="0 0 160 26.901951037653784" height="26.901951037653784" width="160"><g id="textblocktransform"><svg viewBox="0 0 160 26.901951037653784" height="26.901951037653784" width="160" id="textblock"><g><svg viewBox="0 0 160 26.901951037653784" height="26.901951037653784" width="160"><g transform="matrix(1,0,0,1,0,0)"><svg width="160" viewBox="-3.5199999809265137 -56.150001525878906 392.8999938964844 66.05999755859375" height="26.901951037653784" data-palette-color="#000000"><path d="M40.09-1.81L40.09-1.81Q40.09-1.32 40.04-1.07L40.04-1.07Q39.79-0.98 39.65-0.81 39.5-0.63 39.16-0.68L39.16-0.68Q39.06 0.05 38.67 0.54 38.28 1.03 37.87 1.44 37.45 1.86 37.06 2.32 36.67 2.78 36.57 3.52L36.57 3.52Q35.84 3.91 35.13 4.57 34.42 5.22 33.89 5.47L33.89 5.47Q33.5 5.66 33.06 5.79 32.62 5.91 32.18 6.1L32.18 6.1Q30.76 6.74 29.27 7.42 27.78 8.11 26.17 8.11L26.17 8.11 25.83 8.11Q25.63 8.3 25.34 8.37 25.05 8.45 24.76 8.5 24.46 8.54 24.17 8.64 23.88 8.74 23.73 8.94L23.73 8.94Q23.19 8.74 22.56 8.74L22.56 8.74 22.22 8.74Q21.39 8.94 20.65 9.03 19.92 9.13 19.09 9.13L19.09 9.13Q17.63 9.13 16.16 8.94 14.7 8.74 13.23 8.59L13.23 8.59Q12.3 7.86 11.72 6.76 11.13 5.66 11.13 4.44L11.13 4.44Q11.13 3.52 11.52 2.71 11.91 1.9 12.55 1.27L12.55 1.27 12.7 1.27Q13.13 1.27 13.6 1.07 14.06 0.88 14.5 0.88L14.5 0.88Q14.99 0.88 15.31 1.27 15.63 1.66 15.8 2.2 15.97 2.73 16.02 3.3 16.06 3.86 16.06 4.2L16.06 4.2Q16.6 4.44 17.21 4.49 17.82 4.54 18.46 4.54L18.46 4.54Q19.09 4.54 19.87 4.47 20.65 4.39 21.46 4.22 22.27 4.05 23.02 3.81 23.78 3.56 24.32 3.17L24.32 3.17Q27 2.93 29.05 1.95 31.1 0.98 33.4-0.34L33.4-0.34Q33.5-0.88 33.81-1.2 34.13-1.51 34.13-2.15L34.13-2.15Q34.13-2.25 34.11-2.37 34.08-2.49 34.08-2.59L34.08-2.59Q33.11-3.81 32.06-4.74 31.01-5.66 29.35-5.96L29.35-5.96Q29.15-6.4 28.71-6.62 28.27-6.84 27.78-7.03 27.29-7.23 26.86-7.45 26.42-7.67 26.22-8.2L26.22-8.2Q24.9-8.45 23.51-8.81 22.12-9.18 21.14-10.16L21.14-10.16Q20.36-10.21 19.65-10.47 18.95-10.74 18.26-11.01 17.58-11.28 16.85-11.5 16.11-11.72 15.33-11.72L15.33-11.72Q15.14-12.06 14.79-12.26 14.45-12.45 14.04-12.6 13.62-12.74 13.26-12.92 12.89-13.09 12.7-13.43L12.7-13.43Q12.5-13.38 12.4-13.23 12.3-13.09 12.06-13.09L12.06-13.09 11.87-13.09Q11.77-13.38 11.47-13.5 11.18-13.62 11.13-14.01L11.13-14.01Q10.25-14.06 9.55-14.36 8.84-14.65 8.23-15.01 7.62-15.38 6.98-15.72 6.35-16.06 5.57-16.26L5.57-16.26Q5.08-16.65 4.66-17.11 4.25-17.58 3.61-17.58L3.61-17.58Q3.47-17.58 3.08-17.48L3.08-17.48Q2.98-18.36 2.34-18.73 1.71-19.09 0.98-19.38L0.98-19.38Q0.49-20.65-0.34-21.63-1.17-22.61-2.15-23.44L-2.15-23.44Q-2.05-23.73-2.05-23.88L-2.05-23.88Q-2.05-24.37-2.29-24.73-2.54-25.1-2.83-25.34L-2.83-25.34Q-3.52-27.54-3.52-29.64L-3.52-29.64Q-3.52-32.57-2.22-35.08-0.93-37.6 1.86-38.87L1.86-38.87Q1.9-39.26 2.12-39.55 2.34-39.84 2.39-40.23L2.39-40.23Q2.83-40.23 3.08-40.43 3.32-40.63 3.54-40.84 3.76-41.06 4-41.26 4.25-41.46 4.64-41.5L4.64-41.5Q6.49-43.12 8.59-44.12 10.69-45.12 12.89-46.19L12.89-46.19Q13.33-46.39 13.62-46.92L13.62-46.92 13.92-46.92Q14.4-46.92 14.67-47.14 14.94-47.36 15.48-47.27L15.48-47.27Q15.67-47.56 15.99-47.66 16.31-47.75 16.63-47.83 16.94-47.9 17.24-48.05 17.53-48.19 17.63-48.49L17.63-48.49 17.97-48.49Q18.8-48.49 19.58-48.75 20.36-49.02 21.14-49.37L21.14-49.37 21.48-49.37Q22.46-49.37 23.32-49.73 24.17-50.1 25.15-50.24L25.15-50.24Q25.54-50.34 25.93-50.29 26.32-50.24 26.71-50.24L26.71-50.24Q26.95-50.24 27.29-50.29 27.64-50.34 27.78-50.59L27.78-50.59 27.88-50.59Q28.17-50.59 28.22-50.39 28.27-50.2 28.52-50.2L28.52-50.2Q28.86-50.2 29.2-50.29 29.54-50.39 29.88-50.39L29.88-50.39Q31.35-50.39 32.79-50.1 34.23-49.8 35.64-49.56L35.64-49.56Q35.74-48.97 36.16-48.73 36.57-48.49 37.06-48.29L37.06-48.29 37.06-48.1Q37.06-47.71 37.26-47.46L37.26-47.46Q37.06-46.78 36.57-46.44 36.08-46.09 35.5-45.85L35.5-45.85Q35.74-45.65 35.79-45.31 35.84-44.97 35.84-44.68L35.84-44.68 35.84-44.09 35.6-44.14Q34.81-44.14 34.81-43.41L34.81-43.41Q34.18-43.8 33.42-43.9 32.67-43.99 31.93-43.99L31.93-43.99Q30.96-43.99 29.88-43.92 28.81-43.85 27.78-43.95L27.78-43.95Q27.39-43.46 26.81-43.24 26.22-43.02 25.63-43.02L25.63-43.02Q25-43.02 24.41-43.29 23.83-43.55 23.58-44.09L23.58-44.09Q23.34-44.19 23.14-44.19L23.14-44.19 22.71-44.19Q21.92-44.19 21.17-44.02 20.41-43.85 19.63-43.63 18.85-43.41 18.09-43.19 17.33-42.97 16.55-42.92L16.55-42.92Q16.26-42.53 15.77-42.38 15.28-42.24 14.99-41.85L14.99-41.85Q13.96-41.65 13.13-41.19 12.3-40.72 11.52-40.19L11.52-40.19 10.01-39.16Q9.28-38.67 8.35-38.33L8.35-38.33Q7.67-37.6 7.08-37.16 6.49-36.72 5.57-36.38L5.57-36.38Q4.98-36.18 4.91-35.79 4.83-35.4 4.49-35.01L4.49-35.01Q4.2-34.67 3.78-34.5 3.37-34.33 3.08-33.94L3.08-33.94Q2.83-33.59 2.71-33.13 2.59-32.67 2.44-32.23 2.29-31.79 2.1-31.37 1.9-30.96 1.51-30.66L1.51-30.66Q1.51-30.47 1.49-30.27 1.46-30.08 1.46-29.93L1.46-29.93Q1.46-29.25 1.64-28.54 1.81-27.83 1.86-27.15L1.86-27.15Q2.83-25.44 4.15-24.05 5.47-22.66 6.98-21.48 8.5-20.31 10.13-19.29 11.77-18.26 13.38-17.29L13.38-17.29Q13.96-17.33 14.45-17.16 14.94-16.99 15.48-16.94L15.48-16.94Q16.06-16.5 16.85-16.26L16.85-16.26 18.41-15.77Q19.19-15.53 19.92-15.21 20.65-14.89 21.14-14.36L21.14-14.36Q21.39-14.31 21.58-14.23 21.78-14.16 22.02-14.16L22.02-14.16Q22.31-14.16 22.36-14.36L22.36-14.36Q24.56-13.53 26.66-12.52 28.76-11.52 31.1-10.99L31.1-10.99Q32.03-10.21 33.15-9.62 34.28-9.03 35.4-8.42 36.52-7.81 37.55-7.1 38.57-6.4 39.36-5.42L39.36-5.42Q39.45-4.49 39.77-3.64 40.09-2.78 40.09-1.81ZM73.14-7.91L73.14-7.91Q72.95-7.18 72.51-6.69 72.07-6.2 71.51-5.81 70.94-5.42 70.31-5.1 69.68-4.79 69.09-4.39L69.09-4.39 68.45-4.39Q66.4-4.39 65.31-5.4 64.21-6.4 63.62-7.89 63.03-9.38 62.77-11.08 62.5-12.79 62.11-14.21L62.11-14.21Q61.52-13.72 61.13-13.06 60.74-12.4 60.32-11.77 59.91-11.13 59.4-10.6 58.88-10.06 58.05-9.86L58.05-9.86Q57.91-9.52 57.74-9.18 57.57-8.84 57.52-8.45L57.52-8.45Q56.44-7.86 55.56-7.08 54.69-6.3 53.81-5.47 52.93-4.64 52.02-3.88 51.12-3.13 50-2.64L50-2.64Q49.95-2.69 49.8-2.69L49.8-2.69Q49.22-2.69 48.73-2.42 48.24-2.15 47.65-2.15L47.65-2.15Q47.26-2.15 46.95-2.29 46.63-2.44 46.31-2.64 45.99-2.83 45.65-2.93 45.31-3.03 44.92-2.98L44.92-2.98Q44.43-3.86 43.63-4.61 42.82-5.37 42.62-6.35L42.62-6.35Q42.53-6.79 42.5-7.25 42.48-7.71 42.38-8.2L42.38-8.2Q42.23-8.94 41.99-9.69 41.75-10.45 41.6-11.23L41.6-11.23Q41.84-12.55 42.06-14.14 42.28-15.72 42.6-17.31 42.92-18.9 43.48-20.34 44.04-21.78 44.92-22.8L44.92-22.8 44.87-23.14Q44.87-23.93 45.16-24.61 45.46-25.29 45.8-25.93 46.14-26.56 46.38-27.2 46.63-27.83 46.48-28.61L46.48-28.61Q47.07-28.91 47.7-29.1 48.34-29.3 49.02-29.3L49.02-29.3Q49.66-29.3 50.19-29.1L50.19-29.1Q50.1-28.71 50.53-28.61L50.53-28.61 50.53-28.47Q50.53-27.44 50.29-26.46 50.05-25.49 49.7-24.54 49.36-23.58 49.05-22.63 48.73-21.68 48.58-20.7L48.58-20.7Q48.39-20.65 48.31-20.51 48.24-20.36 48.19-20.21 48.14-20.07 48.04-19.97 47.95-19.87 47.75-19.87L47.75-19.87Q47.46-18.16 47.14-16.48 46.82-14.79 46.82-13.09L46.82-13.09Q46.82-12.06 47.02-10.99 47.21-9.91 47.75-8.94L47.75-8.94 47.95-8.98Q48.48-8.98 48.8-8.74 49.12-8.5 49.66-8.25L49.66-8.25Q50.05-8.35 50.39-8.52 50.73-8.69 50.68-9.13L50.68-9.13Q51.32-9.18 51.76-9.45 52.19-9.72 52.54-10.06L52.54-10.06 53.27-10.74Q53.66-11.08 54.2-11.23L54.2-11.23Q54.2-11.52 54.34-11.67L54.34-11.67 54.64-11.96Q54.78-12.11 54.86-12.28 54.93-12.45 54.88-12.79L54.88-12.79Q55.47-12.84 55.78-13.09 56.1-13.33 56.37-13.65 56.64-13.96 56.88-14.31 57.13-14.65 57.52-14.89L57.52-14.89Q57.86-15.63 58.47-16.85 59.08-18.07 59.69-19.38 60.3-20.7 60.76-21.9 61.23-23.1 61.23-23.73L61.23-23.73Q61.23-23.97 61.11-24.17 60.98-24.37 61.03-24.61L61.03-24.61 61.03-24.76Q61.42-25.24 61.74-25.83 62.06-26.42 62.42-26.95 62.79-27.49 63.23-27.93 63.67-28.37 64.35-28.61L64.35-28.61Q65.13-28.37 65.94-28.27 66.75-28.17 67.48-27.88L67.48-27.88Q67.53-26.66 67.72-25.05 67.92-23.44 68.41-22.31L68.41-22.31Q68.41-21.68 68.38-21.09 68.36-20.51 68.36-19.92L68.36-19.92Q68.36-18.95 68.43-17.92 68.5-16.89 68.75-16.02L68.75-16.02Q68.41-15.28 68.41-14.45L68.41-14.45Q68.41-13.33 68.75-12.33 69.09-11.33 69.24-10.21L69.24-10.21Q69.87-9.33 70.9-9.33L70.9-9.33Q71.14-9.33 71.31-9.38 71.48-9.42 71.68-9.52L71.68-9.52Q72.07-9.08 72.39-8.67 72.7-8.25 73.14-7.91ZM109.03-33.15L109.03-33.15Q108.78-32.71 108.78-32.28 108.78-31.84 108.69-31.4L108.69-31.4Q108.25-31.35 107.81-31.1 107.37-30.86 106.95-30.62 106.54-30.37 106.1-30.15 105.66-29.93 105.22-29.93L105.22-29.93Q104.83-29.93 104.49-30.18 104.15-30.42 103.9-30.71L103.9-30.71Q103.02-30.42 102-30.4 100.97-30.37 99.92-30.35 98.87-30.32 97.87-30.2 96.87-30.08 96.04-29.64L96.04-29.64Q96.19-29.2 96.26-28.74 96.33-28.27 96.45-27.83 96.58-27.39 96.8-27 97.02-26.61 97.41-26.32L97.41-26.32Q97.41-25.78 97.5-25.34 97.6-24.9 97.6-24.41L97.6-24.41Q98.43-22.56 99.36-20.65 100.29-18.75 100.63-16.7L100.63-16.7Q100.73-16.16 101-16.04 101.26-15.92 101.31-15.67L101.31-15.67 101.31-14.06Q101.85-13.48 102.07-12.77 102.29-12.06 102.39-11.3 102.49-10.55 102.53-9.77 102.58-8.98 102.73-8.25L102.73-8.25Q102.44-7.86 102.17-7.42 101.9-6.98 101.9-6.45L101.9-6.45Q101.9-6.01 102-5.81L102-5.81Q101.46-5.86 101.26-5.52 101.07-5.18 100.97-4.74L100.97-4.74Q100.19-4.2 99.41-3.69 98.63-3.17 97.94-2.49L97.94-2.49Q97.41-2.44 96.99-2.25 96.58-2.05 96.04-1.81L96.04-1.81Q95.5-1.71 94.92-1.71L94.92-1.71 93.84-1.71Q92.18-1.71 90.55-1.88 88.91-2.05 87.25-2.29L87.25-2.29Q86.57-2.83 85.69-3.05 84.81-3.27 83.98-3.37L83.98-3.37Q83.15-3.96 82.03-4.54 80.9-5.13 79.93-5.08L79.93-5.08Q79.63-5.86 79-6.15 78.36-6.45 77.68-6.49L77.68-6.49Q77.73-6.64 77.73-6.93L77.73-6.93Q77.73-7.28 77.53-7.45 77.34-7.62 77.09-7.74 76.85-7.86 76.56-7.98 76.26-8.11 76.07-8.25L76.07-8.25Q75.53-8.64 75.14-9.16 74.75-9.67 74.36-10.21 73.97-10.74 73.53-11.23 73.09-11.72 72.55-12.11L72.55-12.11Q72.36-13.23 72.11-14.33 71.87-15.43 71.87-16.55L71.87-16.55Q71.87-16.94 72.11-17.29 72.36-17.63 72.65-17.92 72.94-18.21 73.24-18.55 73.53-18.9 73.63-19.29L73.63-19.29Q74.36-18.95 75.34-18.95L75.34-18.95Q76.41-18.95 77.44-19.26 78.46-19.58 79.58-19.58L79.58-19.58Q79.93-19.58 80.22-19.51 80.51-19.43 80.81-19.43L80.81-19.43Q81.15-19.43 81.22-19.65 81.29-19.87 81.68-19.87L81.68-19.87Q82.37-19.87 82.86-19.36 83.34-18.85 83.78-18.46L83.78-18.46Q83.74-17.77 83.34-17.48 82.95-17.19 82.71-16.7L82.71-16.7Q81.93-16.65 81.37-16.43 80.81-16.21 80.27-15.94 79.73-15.67 79.15-15.48 78.56-15.28 77.68-15.28L77.68-15.28Q77.39-15.28 77.19-14.84 77-14.4 76.75-14.21L76.75-14.21Q77.14-13.82 77.46-13.38 77.78-12.94 78.1-12.52 78.41-12.11 78.85-11.82 79.29-11.52 79.93-11.38L79.93-11.38Q80.02-10.99 80.24-10.77 80.46-10.55 80.61-10.21L80.61-10.21Q81.73-9.81 82.66-9.3 83.59-8.79 84.52-8.33 85.44-7.86 86.42-7.52 87.4-7.18 88.67-7.03L88.67-7.03Q89.06-6.98 89.01-6.76 88.96-6.54 89.2-6.49L89.2-6.49Q89.4-6.49 89.67-6.52 89.94-6.54 90.13-6.54L90.13-6.54Q90.67-6.54 91.16-6.45 91.65-6.35 92.18-6.15L92.18-6.15Q92.77-6.35 93.67-6.52 94.58-6.69 95.43-7.01 96.28-7.32 96.87-7.84 97.46-8.35 97.46-9.23L97.46-9.23Q97.46-10.74 96.82-12.04 96.19-13.33 95.84-14.75L95.84-14.75Q95.75-15.23 95.7-15.82 95.65-16.41 95.53-16.99 95.41-17.58 95.19-18.04 94.97-18.51 94.48-18.8L94.48-18.8Q94.48-19.19 94.38-19.65 94.28-20.12 93.75-20.21L93.75-20.21Q93.6-21.29 93.18-22.29 92.77-23.29 92.3-24.27 91.84-25.24 91.45-26.27 91.06-27.29 90.96-28.42L90.96-28.42Q89.4-28.42 87.93-28.08 86.47-27.73 85.03-27.27 83.59-26.81 82.12-26.34 80.66-25.88 79.19-25.59L79.19-25.59Q78.32-25.98 77.66-26.51 77-27.05 75.92-27.2L75.92-27.2Q76.07-27.83 76.17-28.61 76.26-29.39 76.51-30.13 76.75-30.86 77.19-31.42 77.63-31.98 78.36-32.23L78.36-32.23Q79.15-32.08 80.12-32.08L80.12-32.08Q81.59-32.08 82.95-32.47 84.32-32.86 85.74-33.3L85.74-33.3 86.13-33.3Q87.54-33.3 89.2-33.64 90.86-33.98 92.18-34.57L92.18-34.57Q92.38-34.47 92.35-34.35 92.33-34.23 92.52-34.18L92.52-34.18Q93.06-34.67 93.94-34.77 94.82-34.86 95.77-34.89 96.72-34.91 97.6-35.01 98.48-35.11 99.02-35.6L99.02-35.6Q99.7-35.35 100.46-35.28 101.22-35.21 102-35.21L102-35.21Q102.97-35.21 103.93-35.28 104.88-35.35 105.85-35.4L105.85-35.4Q105.56-35.5 105.56-35.64L105.56-35.64Q105.56-35.74 105.66-35.94L105.66-35.94Q106.29-35.79 106.81-35.47 107.32-35.16 107.95-35.06L107.95-35.06Q107.81-34.81 107.81-34.52L107.81-34.52Q107.81-33.98 108.25-33.72 108.69-33.45 109.03-33.15ZM138.81-28.27L138.81-28.27Q138.52-27.83 138.47-27.29 138.42-26.76 138.42-26.32L138.42-26.32Q138.42-25.73 138.44-25.17 138.47-24.61 138.47-24.07L138.47-24.07 138.47-23.34Q138.37-23 138.18-22.66 137.98-22.31 137.88-21.97L137.88-21.97Q137.2-20.17 137.2-18.36L137.2-18.36 137.2-18.26Q136.96-17.68 136.74-17.19 136.52-16.7 136.32-16.24 136.13-15.77 136.03-15.26 135.93-14.75 135.98-14.06L135.98-14.06Q135.3-12.35 134.17-10.96 133.05-9.57 131.97-8.11L131.97-8.11Q130.95-7.71 130.1-7.08 129.24-6.45 128.46-5.66L128.46-5.66Q126.95-5.18 125.48-4.54 124.02-3.91 122.84-2.83L122.84-2.83Q121.92-2.73 120.99-2.54 120.06-2.34 119.18-1.95L119.18-1.95 118.6-1.95Q118.16-1.95 117.96-2.15L117.96-2.15Q117.33-1.81 116.64-1.68 115.96-1.56 115.28-1.56L115.28-1.56Q114.4-1.56 113.54-1.68 112.69-1.81 111.81-1.95L111.81-1.95Q111.32-2.64 110.44-3 109.56-3.37 108.88-3.71L108.88-3.71Q107.46-5.66 106.83-7.5 106.19-9.33 105.51-11.62L105.51-11.62Q105.61-12.3 105.85-12.96 106.1-13.62 106.05-14.4L106.05-14.4Q106.93-16.94 108.37-19.02 109.81-21.09 111.66-23L111.66-23Q111.66-23.29 111.78-23.49 111.91-23.68 111.81-24.07L111.81-24.07Q111.86-24.02 112-24.02L112-24.02Q112.39-24.02 112.49-24.24 112.59-24.46 112.54-24.76L112.54-24.76Q114.3-25.88 115.74-27.34 117.18-28.81 119.04-29.79L119.04-29.79Q119.18-30.22 119.52-30.52 119.87-30.81 120.06-31.2L120.06-31.2Q121.62-31.64 122.89-32.52 124.16-33.4 125.58-34.08L125.58-34.08Q126.36-34.52 127.07-34.69 127.78-34.86 128.61-35.06L128.61-35.06Q128.9-35.16 129.14-35.21 129.39-35.25 129.68-35.25L129.68-35.25Q130.56-35.25 131.39-34.94 132.22-34.62 133.1-34.62L133.1-34.62Q133.34-34.62 133.51-34.64 133.68-34.67 133.88-34.72L133.88-34.72Q134.71-33.69 135.98-33.15L135.98-33.15Q136.27-32.42 136.69-31.88 137.1-31.35 137.54-30.83 137.98-30.32 138.35-29.71 138.71-29.1 138.81-28.27ZM133.93-25.73L133.93-25.73Q133.93-25.98 133.88-26.17L133.88-26.17Q133.39-26.32 132.95-26.56 132.51-26.81 131.97-26.81L131.97-26.81Q131.63-26.81 131.29-26.66L131.29-26.66Q131.24-27 131.02-27.15 130.8-27.29 130.53-27.42 130.27-27.54 130-27.61 129.73-27.69 129.53-27.88L129.53-27.88Q129.39-28.27 129.22-28.69 129.05-29.1 128.61-29.3L128.61-29.3Q128.17-28.86 127.58-28.59 126.99-28.32 126.38-28.08 125.77-27.83 125.21-27.49 124.65-27.15 124.26-26.66L124.26-26.66 123.38-26.66Q123.09-26.12 122.55-25.85 122.01-25.59 121.62-25.1L121.62-25.1Q120.84-24.71 120.18-24.15 119.52-23.58 118.89-22.97 118.25-22.36 117.64-21.73 117.03-21.09 116.35-20.56L116.35-20.56Q115.72-19.19 114.96-18.19 114.2-17.19 113.54-16.16 112.88-15.14 112.42-13.94 111.96-12.74 111.96-10.99L111.96-10.99 111.96-10.5Q111.96-10.25 112-10.01L112-10.01Q112.64-9.33 113.05-8.54 113.47-7.76 114.45-7.42L114.45-7.42Q115.42-7.03 116.52-7.08 117.62-7.13 118.64-6.84L118.64-6.84Q120.99-7.28 123.16-8.28 125.33-9.28 127.29-10.69L127.29-10.69Q127.58-10.94 127.97-11.21 128.36-11.47 128.61-11.77L128.61-11.77Q128.85-12.01 129.02-12.3 129.19-12.6 129.39-12.84L129.39-12.84Q129.78-13.48 130.27-14.11 130.75-14.75 131.29-15.28L131.29-15.28Q131.54-16.36 131.93-17.36 132.32-18.36 132.71-19.34 133.1-20.31 133.37-21.34 133.64-22.36 133.64-23.49L133.64-23.49Q133.64-23.73 133.61-24.02 133.59-24.32 133.54-24.56L133.54-24.56Q133.93-25.1 133.93-25.73ZM168.01-33.59L168.01-33.59Q168.01-33.15 167.64-32.86 167.28-32.57 167.28-32.42L167.28-32.42Q167.28-32.13 167.37-32.01 167.47-31.88 167.47-31.74L167.47-31.74 167.47-31.49Q166.98-31.01 166.74-30.44 166.49-29.88 166.35-29.27 166.2-28.66 166.08-28.03 165.96-27.39 165.76-26.81L165.76-26.81Q165.52-26.22 165.13-25.81 164.74-25.39 164.49-24.85L164.49-24.85Q164.1-23.97 163.91-23.05 163.71-22.12 163.08-21.34L163.08-21.34 163.08-21.09Q163.03-20.75 163.27-20.51L163.27-20.51Q162.34-19.29 161.81-17.6 161.27-15.92 160.93-14.09 160.59-12.26 160.34-10.42 160.1-8.59 159.76-7.13L159.76-7.13Q160-6.05 160.51-5.1 161.03-4.15 161.51-3.13L161.51-3.13Q162.49-2.88 163.39-2.44 164.3-2 164.69-1.03L164.69-1.03Q164.59-0.05 164.05 0.49 163.52 1.03 162.73 1.61L162.73 1.61Q162.2 1.42 161.86 1.29 161.51 1.17 160.83 1.27L160.83 1.27Q159.9 0.54 159.1 0.1 158.29-0.34 157.66-1.42L157.66-1.42Q157.56-1.56 157.36-1.56L157.36-1.56 156.92-1.56Q156.68-2.15 156.34-2.81 156-3.47 155.65-4.17 155.31-4.88 155.07-5.59 154.82-6.3 154.82-6.88L154.82-6.88Q154.82-9.38 155.29-11.84 155.75-14.31 155.75-16.85L155.75-16.85 155.75-17.33Q154.78-17.09 153.82-16.65 152.87-16.21 151.89-15.97L151.89-15.97Q151.55-15.87 151.5-15.63 151.45-15.38 151.21-15.23L151.21-15.23Q150.72-15.19 150.28-15.16 149.84-15.14 149.45-15.14L149.45-15.14Q148.62-15.14 147.72-15.21 146.82-15.28 145.94-15.53 145.06-15.77 144.3-16.21 143.54-16.65 142.96-17.33L142.96-17.33Q142.86-17.29 142.71-17.24 142.57-17.19 142.42-17.19L142.42-17.19Q142.28-17.19 142.13-17.24 141.98-17.29 141.88-17.33L141.88-17.33Q141.49-17.87 141.25-18.51L141.25-18.51 140.76-19.78Q140.52-20.41 140.22-21 139.93-21.58 139.44-22.07L139.44-22.07Q139.3-22.95 139.3-23.78L139.3-23.78Q139.3-24.66 139.42-25.49 139.54-26.32 139.78-27.15L139.78-27.15Q139.59-27.73 139.52-28.37 139.44-29 139.44-29.64L139.44-29.64Q139.44-30.37 139.59-31.15 139.74-31.93 140.08-32.59 140.42-33.25 141.03-33.69 141.64-34.13 142.52-34.13L142.52-34.13Q143.5-34.13 144.33-33.62 145.16-33.11 145.94-32.57L145.94-32.57Q146.03-31.98 146.08-31.42 146.13-30.86 146.13-30.22L146.13-30.22Q146.13-29.05 146.01-27.86 145.89-26.66 145.89-25.44L145.89-25.44Q145.89-24.17 146.21-23.07 146.52-21.97 147.35-21L147.35-21 147.55-21Q147.94-21.04 148.23-20.85 148.53-20.65 148.92-20.65L148.92-20.65Q149.26-20.65 149.45-20.92 149.65-21.19 149.94-21.19L149.94-21.19Q150.23-21.19 150.38-21.09 150.53-21 150.62-21L150.62-21Q151.16-21 151.85-21.39 152.53-21.78 152.72-22.27L152.72-22.27Q152.92-22.12 153.21-22.12L153.21-22.12Q153.6-22.12 153.95-22.36 154.29-22.61 154.82-22.61L154.82-22.61Q155.12-22.61 155.04-22.97 154.97-23.34 155.21-23.44L155.21-23.44Q155.8-23.68 156.51-24.15 157.22-24.61 157.66-24.71L157.66-24.71Q157.9-25.34 158.27-25.9 158.63-26.46 159.02-26.95L159.02-26.95Q159.17-28.08 159.61-29.1 160.05-30.13 160.54-31.15 161.03-32.18 161.46-33.2 161.9-34.23 162.05-35.35L162.05-35.35Q162.59-35.89 162.91-36.52 163.22-37.16 163.47-37.79L163.47-37.79Q163.95-37.94 164.69-37.96 165.42-37.99 165.96-37.99L165.96-37.99 166.79-37.99Q166.93-37.7 167.18-37.45L167.18-37.45 167.67-36.96Q167.23-36.28 167.23-35.6L167.23-35.6Q167.23-35.06 167.47-34.55 167.71-34.03 168.01-33.59ZM237.44-44.19L237.44-44.19Q237.44-42.48 236.8-40.89 236.17-39.31 235.87-37.65L235.87-37.65Q234.8-36.23 233.87-34.72 232.94-33.2 231.97-31.69 230.99-30.18 229.92-28.78 228.84-27.39 227.48-26.27L227.48-26.27Q227.52-26.22 227.52-26.07L227.52-26.07Q227.52-25.78 227.26-25.61 226.99-25.44 227.08-25.2L227.08-25.2Q225.86-23.93 224.69-22.71 223.52-21.48 222.54-19.97L222.54-19.97Q221.47-19.43 220.79-18.21L220.79-18.21Q220.49-18.21 220.35-18.09 220.2-17.97 219.96-17.87L219.96-17.87Q218.39-15.97 216.68-14.26 214.98-12.55 213.02-11.13L213.02-11.13Q212.29-10.6 211.56-10.16 210.82-9.72 210.14-9.23L210.14-9.23Q209.7-8.94 209.29-8.54 208.87-8.15 208.43-7.81L208.43-7.81Q207.02-6.59 205.65-5.79 204.28-4.98 202.43-4.69L202.43-4.69Q202.28-4.15 202.28-3.52L202.28-3.52 202.28-2.34Q202.28-1.76 202.23-1.15 202.18-0.54 201.89 0L201.89 0 201.89 0.15Q201.89 0.63 202.13 1.1 202.38 1.56 202.38 2.05L202.38 2.05Q202.38 2.39 202.04 2.64L202.04 2.64 203.31 2.64Q203.31 3.32 203.72 3.81 204.14 4.3 204.14 4.54L204.14 4.54Q204.14 5.37 203.96 6.37 203.79 7.37 202.96 7.71L202.96 7.71 202.96 8.01Q202.96 8.5 202.87 8.96 202.77 9.42 202.43 9.86L202.43 9.86Q202.13 9.86 201.86 9.89 201.6 9.91 201.35 9.91L201.35 9.91Q199.3 9.91 197.69 8.94L197.69 8.94Q197.15 7.67 196.98 6.32 196.81 4.98 196.81 3.61L196.81 3.61Q196.81 0.93 197.2-1.71 197.59-4.35 197.84-6.98L197.84-6.98 198.57-8.4Q198.67-9.77 198.91-11.16 199.15-12.55 199.4-13.92 199.64-15.28 199.81-16.65 199.99-18.02 199.94-19.38L199.94-19.38Q200.33-20.21 200.5-21.14 200.67-22.07 200.67-22.95L200.67-22.95Q200.67-23.44 200.62-23.93 200.57-24.41 200.33-24.85L200.33-24.85Q200.62-25.05 200.72-25.34 200.82-25.63 201.01-25.88L201.01-25.88Q201.16-27.78 201.25-29.66 201.35-31.54 201.35-33.4L201.35-33.4Q201.35-34.42 201.3-35.42 201.25-36.43 201.16-37.45L201.16-37.45Q201.11-37.84 200.99-38.38 200.86-38.92 200.86-39.21L200.86-39.21Q200.86-39.6 200.91-40.01 200.96-40.43 200.96-40.87L200.96-40.87Q200.96-41.36 200.86-41.82 200.77-42.29 200.52-42.68L200.52-42.68Q198.18-41.99 196.32-40.84 194.47-39.7 192.56-38.28L192.56-38.28Q191.78-37.74 190.85-37.01 189.93-36.28 189.1-35.89L189.1-35.89Q188.95-35.79 188.73-35.77 188.51-35.74 188.36-35.74L188.36-35.74Q187.83-35.74 187.39-35.82 186.95-35.89 186.51-35.89L186.51-35.89Q185.82-36.57 184.9-36.96L184.9-36.96Q184.75-37.55 184.75-38.23L184.75-38.23Q184.75-38.92 184.87-39.55 184.99-40.19 185.24-40.82L185.24-40.82Q185.82-41.02 186.48-41.26 187.14-41.5 187.75-41.82 188.36-42.14 188.85-42.55 189.34-42.97 189.63-43.6L189.63-43.6Q189.93-43.46 190.17-43.46L190.17-43.46Q190.41-43.46 190.61-43.51 190.81-43.55 191.05-43.6L191.05-43.6Q191.93-44.14 192.83-44.73 193.74-45.31 194.71-45.7L194.71-45.7Q195-45.8 195.05-45.95 195.1-46.09 195.05-46.39L195.05-46.39Q196.18-46.73 197.4-47.19 198.62-47.66 199.45-48.49L199.45-48.49 200.33-48.49Q201.06-49.02 201.89-49.37 202.72-49.71 203.57-50.02 204.43-50.34 205.26-50.71 206.09-51.07 206.82-51.66L206.82-51.66Q207.11-51.76 207.31-51.76L207.31-51.76Q207.55-51.76 207.85-51.66L207.85-51.66Q208.33-51.9 208.68-52.25L208.68-52.25 209.46-53.03Q210.24-53.03 210.87-53.17 211.51-53.32 212.09-53.56 212.68-53.81 213.24-54.13 213.8-54.44 214.49-54.79L214.49-54.79Q214.78-54.69 214.93-54.57 215.07-54.44 215.41-54.44L215.41-54.44Q215.9-54.79 216.46-54.96 217.03-55.13 217.61-55.22 218.2-55.32 218.76-55.47 219.32-55.62 219.76-56.01L219.76-56.01Q221.32-56.01 222.91-56.08 224.5-56.15 226.06-56.15L226.06-56.15Q228.31-56.15 230.62-55.81 232.94-55.47 234.8-54.1L234.8-54.1Q235.53-52.34 236.9-51.12L236.9-51.12Q237-50.59 237.12-50.12 237.24-49.66 237.44-49.22L237.44-49.22Q237.09-48.49 237.09-47.61L237.09-47.61Q237.09-46.73 237.27-45.87 237.44-45.02 237.44-44.19ZM232.9-45.36L232.9-45.36Q232.65-45.8 232.58-46.36 232.5-46.92 232.55-47.46L232.55-47.46Q231.92-47.95 231.58-48.73 231.24-49.51 230.6-49.9L230.6-49.9Q230.16-50.15 229.36-50.2 228.55-50.24 228.01-50.39L228.01-50.39Q227.38-50.59 227.16-50.78 226.94-50.98 226.25-50.98L226.25-50.98Q225.67-50.98 225.08-50.85 224.5-50.73 223.91-50.73L223.91-50.73Q223.42-50.73 222.98-50.93 222.54-51.12 222.06-51.12L222.06-51.12Q221.52-51.12 221.05-50.78 220.59-50.44 219.96-50.59L219.96-50.59Q219.66-50.34 219.64-50.2 219.61-50.05 219.57-49.98 219.52-49.9 219.32-49.9L219.32-49.9 218.64-49.9Q217.61-49.9 216.56-49.61 215.51-49.32 214.68-48.63L214.68-48.63Q214.54-48.68 214.41-48.71 214.29-48.73 214.15-48.73L214.15-48.73Q213.32-48.73 212.56-48.27 211.8-47.8 210.87-47.8L210.87-47.8Q210.29-47.22 209.46-46.88 208.63-46.53 207.77-46.22 206.92-45.9 206.19-45.48 205.45-45.07 205.06-44.29L205.06-44.29Q205.01-43.9 205.31-43.8 205.6-43.7 205.6-43.31L205.6-43.31Q205.6-42.97 205.48-42.48 205.36-41.99 205.36-41.5L205.36-41.5Q205.36-40.38 205.6-39.31 205.84-38.23 206.09-37.11L206.09-37.11Q205.84-36.96 205.75-36.67 205.65-36.38 205.4-36.23L205.4-36.23Q206.09-34.18 206.09-32.03L206.09-32.03Q206.09-30.32 205.72-28.69 205.36-27.05 205.21-25.34L205.21-25.34 205.21-25.29Q205.21-25 205.4-24.9 205.6-24.8 205.6-24.56L205.6-24.56Q205.6-24.41 205.55-24.32L205.55-24.32Q205.01-21 204.5-17.68 203.99-14.36 203.65-10.99L203.65-10.99 204.04-10.99Q205.31-10.99 206.31-11.74 207.31-12.5 207.99-13.43L207.99-13.43 208.77-13.43Q212.29-16.5 215.54-19.78 218.78-23.05 221.71-26.81L221.71-26.81Q222.1-26.81 222.25-27 222.4-27.2 222.74-27.29L222.74-27.29Q223.76-28.71 224.89-30.1 226.01-31.49 227.33-32.76L227.33-32.76Q227.38-33.25 227.6-33.64 227.82-34.03 228.06-34.38 228.31-34.72 228.5-35.11 228.7-35.5 228.7-36.04L228.7-36.04Q228.94-36.13 229.23-36.25 229.53-36.38 229.77-36.62L229.77-36.62Q229.87-37.11 230.11-37.5 230.36-37.89 230.36-38.38L230.36-38.38Q230.36-38.57 230.26-38.87L230.26-38.87Q231.04-39.21 231.48-39.99 231.92-40.77 232.16-41.72 232.41-42.68 232.53-43.65 232.65-44.63 232.9-45.36ZM265.51-31.05L265.51-31.05 265.51-30.86Q265.17-30.76 265.17-30.37L265.17-30.37Q264.63-30.13 264.05-30 263.46-29.88 262.92-29.64L262.92-29.64Q262.38-29.69 261.82-29.71 261.26-29.74 260.72-29.74L260.72-29.74Q259.26-29.74 257.8-29.64 256.33-29.54 254.87-29.64L254.87-29.64Q254.18-29.25 253.38-29.03 252.57-28.81 251.84-28.81L251.84-28.81Q251.25-28.81 250.81-28.96L250.81-28.96Q249.64-28.37 248.25-27.98 246.86-27.59 245.44-27.22 244.03-26.86 242.73-26.39 241.44-25.93 240.46-25.1L240.46-25.1Q240.36-24.41 240.31-23.75 240.27-23.1 240.27-22.46L240.27-22.46Q240.27-21.78 240.34-21.19 240.41-20.61 240.66-20.02L240.66-20.02Q240.9-19.92 241.22-19.87 241.54-19.82 241.78-19.82L241.78-19.82Q242.02-19.82 242.27-19.9 242.51-19.97 242.61-20.21L242.61-20.21Q243.34-20.31 244.07-20.29 244.81-20.26 245.54-20.26L245.54-20.26Q246.27-20.26 246.98-20.31 247.69-20.36 248.37-20.56L248.37-20.56Q249.15-20.75 249.91-20.8 250.67-20.85 251.4-20.9 252.13-20.95 252.91-21.07 253.69-21.19 254.52-21.58L254.52-21.58Q255.16-21.34 255.82-21.34 256.48-21.34 257.11-21.24L257.11-21.24Q257.45-21 257.67-20.7 257.89-20.41 257.89-20.02L257.89-20.02Q257.89-19.34 257.4-18.65 256.92-17.97 256.62-17.38L256.62-17.38 256.09-17.38Q254.91-17.38 253.82-17.07 252.72-16.75 251.62-16.33 250.52-15.92 249.42-15.6 248.32-15.28 247.15-15.28L247.15-15.28Q246.96-15.28 246.93-15.06 246.91-14.84 246.81-14.75L246.81-14.75Q246.56-14.79 246.08-14.79L246.08-14.79Q244.95-14.79 243.93-14.55 242.9-14.31 241.83-14.31L241.83-14.31Q241.54-14.31 241.24-14.33 240.95-14.36 240.66-14.4L240.66-14.4Q240.41-14.01 240.02-13.89 239.63-13.77 239.29-13.48L239.29-13.48Q239.14-13.04 239.12-12.4 239.09-11.77 239.07-11.11 239.05-10.45 238.95-9.86 238.85-9.28 238.56-8.94L238.56-8.94Q238.61-8.69 238.95-8.76 239.29-8.84 239.29-8.45L239.29-8.45Q239.29-8.01 239.19-7.52 239.09-7.03 239.09-6.54L239.09-6.54Q239.09-5.62 239.31-4.52 239.53-3.42 240-2.49 240.46-1.56 241.24-0.95 242.02-0.34 243.2-0.34L243.2-0.34Q243.98-0.34 244.66-0.63 245.34-0.93 245.78-1.61L245.78-1.61 246.03-1.66Q246.22-1.66 246.39-1.61 246.56-1.56 246.76-1.56L246.76-1.56Q247.05-1.56 247.52-1.93 247.98-2.29 248.54-2.78 249.1-3.27 249.69-3.74 250.28-4.2 250.81-4.39L250.81-4.39Q251.15-5.08 251.47-5.76 251.79-6.45 252.42-6.84L252.42-6.84 252.42-8.25Q252.91-8.79 253.47-9.23 254.04-9.67 254.33-10.35L254.33-10.35Q254.57-10.25 254.79-10.21 255.01-10.16 255.26-10.16L255.26-10.16Q255.5-10.16 255.77-10.21 256.04-10.25 256.28-10.35L256.28-10.35Q256.67-9.81 256.89-9.16 257.11-8.5 257.45-7.91L257.45-7.91Q257.01-7.03 256.43-5.81 255.84-4.59 255.16-3.37 254.47-2.15 253.72-1.05 252.96 0.05 252.23 0.63L252.23 0.63Q252.08 0.78 251.59 0.98L251.59 0.98Q251.06 1.37 250.62 1.73 250.18 2.1 249.79 2.59L249.79 2.59Q248.37 3.03 247.08 3.76 245.78 4.49 244.51 5.18L244.51 5.18Q243.93 5.03 243.24 5.03L243.24 5.03Q242.66 5.03 242.07 5.1 241.49 5.18 240.8 5.18L240.8 5.18Q240.61 4.93 240.24 4.86 239.88 4.79 239.97 4.35L239.97 4.35Q238.31 4.25 237.29 3.44 236.26 2.64 235.55 1.46 234.85 0.29 234.41-1.07 233.97-2.44 233.48-3.71L233.48-3.71 233.48-3.86Q233.48-4.1 233.67-4.15 233.87-4.2 233.87-4.44L233.87-4.44Q233.87-4.54 233.82-4.59L233.82-4.59Q233.67-5.13 233.58-5.52 233.48-5.91 233.48-6.45L233.48-6.45Q233.48-7.23 233.58-7.98 233.67-8.74 233.67-9.52L233.67-9.52Q233.67-10.3 233.48-10.89L233.48-10.89Q233.67-11.13 233.8-11.55 233.92-11.96 233.97-12.4 234.02-12.84 234.04-13.28 234.06-13.72 234.16-14.06L234.16-14.06Q233.97-14.6 233.82-15.01 233.67-15.43 233.67-16.02L233.67-16.02 233.67-16.36Q234.16-17.19 234.5-18.07 234.85-18.95 235.24-19.87L235.24-19.87 235.24-20.02Q235.24-21.44 235.14-22.85 235.04-24.27 235.04-25.68L235.04-25.68 235.04-26.61Q235.04-27.1 235.09-27.54L235.09-27.54Q235.48-27.73 235.68-28.08 235.87-28.42 236.26-28.61L236.26-28.61 237.87-28.61 238.17-29.1Q238.31-29.35 238.36-29.64L238.36-29.64Q238.9-29.79 239.41-30.05 239.92-30.32 240.36-30.62L240.36-30.62Q241.05-31.01 241.61-31.32 242.17-31.64 242.73-31.86 243.29-32.08 243.93-32.23 244.56-32.37 245.39-32.47L245.39-32.47Q245.78-32.47 245.91-32.62 246.03-32.76 246.27-32.96L246.27-32.96Q246.86-32.86 247.44-32.79 248.03-32.71 248.62-32.71L248.62-32.71Q249.79-32.71 250.81-33.15L250.81-33.15Q252.28-33.15 253.72-33.2 255.16-33.25 256.62-33.25L256.62-33.25Q257.89-33.25 259.16-33.15 260.43-33.06 261.65-32.81L261.65-32.81Q262.09-32.96 262.63-32.96L262.63-32.96Q263.21-32.96 263.83-32.84 264.44-32.71 265.02-32.81L265.02-32.81Q265.07-32.28 265.29-31.91 265.51-31.54 265.51-31.05ZM305.06-31.4L305.2-31.4Q305.01-30.76 304.57-30.22L304.57-30.22 303.74-29.2Q303.35-28.71 303.08-28.15 302.81-27.59 302.91-26.86L302.91-26.86Q302.81-26.86 302.67-26.88 302.52-26.9 302.42-26.9L302.42-26.9Q301.64-26.9 301.23-26.54 300.81-26.17 300.13-25.93L300.13-25.93Q300.03-26.22 299.88-26.49 299.74-26.76 299.44-26.86L299.44-26.86Q298.27-26.61 297.1-26.49 295.93-26.37 294.76-26.17L294.76-26.17Q294.22-26.07 293.68-25.9 293.14-25.73 292.56-25.59L292.56-25.59Q292.27-25.49 291.92-25.51 291.58-25.54 291.24-25.49L291.24-25.49Q290.07-25.44 288.7-25.32 287.33-25.2 286.26-24.56L286.26-24.56Q285.77-24.66 285.23-24.71 284.7-24.76 284.16-24.76L284.16-24.76Q282.99-24.76 281.6-24.54 280.2-24.32 279.13-23.68L279.13-23.68Q278.89-23.78 278.62-23.83 278.35-23.88 278.01-23.88L278.01-23.88Q277.91-23.88 277.86-23.85 277.81-23.83 277.71-23.83L277.71-23.83Q277.67-23.39 277.84-22.97 278.01-22.56 278.45-22.31L278.45-22.31Q278.25-21.78 278.25-21.14L278.25-21.14Q278.25-20.31 278.37-19.48 278.5-18.65 278.5-17.82L278.5-17.82Q278.5-16.89 278.25-16.36L278.25-16.36Q278.74-14.89 278.74-13.23L278.74-13.23Q278.74-12.65 278.67-12.08 278.59-11.52 278.59-10.89L278.59-10.89Q278.59-10.35 278.98-10.03 279.37-9.72 279.37-9.18L279.37-9.18Q279.37-8.98 279.28-8.79L279.28-8.79Q279.96-8.94 280.6-9.2 281.23-9.47 281.91-9.47L281.91-9.47Q282.3-9.47 282.67-9.33 283.04-9.18 283.33-8.94L283.33-8.94Q283.28-8.69 283.26-8.4 283.23-8.11 283.23-7.81L283.23-7.81Q283.23-7.28 283.26-6.81 283.28-6.35 283.33-5.81L283.33-5.81Q282.94-5.13 282.43-4.59 281.91-4.05 281.72-3.22L281.72-3.22Q280.99-3.22 280.42-2.91 279.86-2.59 279.37-2.22 278.89-1.86 278.4-1.54 277.91-1.22 277.32-1.22L277.32-1.22Q276.59-1.22 276.3-1.44 276.01-1.66 275.86-1.9 275.71-2.15 275.59-2.34 275.47-2.54 275.08-2.49L275.08-2.49Q274.98-3.13 274.69-3.69 274.39-4.25 274.08-4.79 273.76-5.32 273.44-5.88 273.12-6.45 272.98-7.03L272.98-7.03Q272.69-8.3 272.73-9.67 272.78-11.04 272.29-12.3L272.29-12.3Q272.39-12.99 272.44-13.7 272.49-14.4 272.49-15.09L272.49-15.09Q272.49-16.46 272.42-17.8 272.34-19.14 272.29-20.56L272.29-20.56Q271.95-21 271.88-21.56 271.81-22.12 271.76-22.66L271.76-22.66Q271.61-22.8 271.44-22.95 271.27-23.1 271.22-23.34L271.22-23.34Q270.83-23.44 270.63-23.44L270.63-23.44Q269.95-23.44 269.49-23.12 269.02-22.8 268.63-22.8L268.63-22.8Q268.24-22.8 267.9-22.9 267.56-23 267.22-23L267.22-23Q266.92-23 266.9-22.88 266.87-22.75 266.68-22.66L266.68-22.66Q266.53-22.56 266-22.46 265.46-22.36 264.8-22.29 264.14-22.22 263.53-22.17 262.92-22.12 262.72-22.12L262.72-22.12Q261.94-22.12 261.53-22.44 261.11-22.75 260.53-23.14L260.53-23.14Q260.62-23.44 260.62-23.54L260.62-23.54Q260.62-24.02 260.33-24.34 260.04-24.66 260.04-24.9L260.04-24.9Q260.04-25.44 260.45-25.73 260.87-26.03 260.92-26.66L260.92-26.66Q262.04-27.15 263.21-27.39 264.38-27.64 265.61-27.78 266.83-27.93 268.02-28.13 269.22-28.32 270.39-28.76L270.39-28.76Q270.73-28.71 271.05-28.69 271.37-28.66 271.71-28.66L271.71-28.66Q273.17-28.66 274.61-28.98 276.05-29.3 277.57-29.3L277.57-29.3Q277.96-29.3 278.35-29.25 278.74-29.2 279.13-29.1L279.13-29.1Q281.08-29.39 283.01-29.74 284.94-30.08 286.99-30.32L286.99-30.32Q287.97-30.42 288.92-30.49 289.87-30.57 290.85-30.71L290.85-30.71Q291.19-30.76 291.36-30.88 291.53-31.01 291.53-31.4L291.53-31.4Q291.97-31.2 292.51-31.2L292.51-31.2Q293.34-31.2 294.12-31.49 294.9-31.79 295.73-31.79L295.73-31.79Q295.93-31.79 296.07-31.76 296.22-31.74 296.37-31.74L296.37-31.74Q296.71-31.74 296.73-32.06 296.76-32.37 297.2-32.47L297.2-32.47Q297.54-32.57 298.17-32.62 298.81-32.67 299.52-32.74 300.22-32.81 300.83-32.93 301.44-33.06 301.74-33.3L301.74-33.3 302.08-33.84Q302.96-33.79 303.37-33.08 303.79-32.37 303.84-31.54L303.84-31.54Q304.03-31.35 304.4-31.37 304.77-31.4 305.06-31.4L305.06-31.4ZM329.27-31.05L329.27-31.05 329.27-30.86Q328.93-30.76 328.93-30.37L328.93-30.37Q328.4-30.13 327.81-30 327.22-29.88 326.69-29.64L326.69-29.64Q326.15-29.69 325.59-29.71 325.03-29.74 324.49-29.74L324.49-29.74Q323.02-29.74 321.56-29.64 320.09-29.54 318.63-29.64L318.63-29.64Q317.95-29.25 317.14-29.03 316.33-28.81 315.6-28.81L315.6-28.81Q315.02-28.81 314.58-28.96L314.58-28.96Q313.41-28.37 312.01-27.98 310.62-27.59 309.21-27.22 307.79-26.86 306.5-26.39 305.2-25.93 304.23-25.1L304.23-25.1Q304.13-24.41 304.08-23.75 304.03-23.1 304.03-22.46L304.03-22.46Q304.03-21.78 304.1-21.19 304.18-20.61 304.42-20.02L304.42-20.02Q304.67-19.92 304.98-19.87 305.3-19.82 305.54-19.82L305.54-19.82Q305.79-19.82 306.03-19.9 306.28-19.97 306.37-20.21L306.37-20.21Q307.11-20.31 307.84-20.29 308.57-20.26 309.3-20.26L309.3-20.26Q310.04-20.26 310.74-20.31 311.45-20.36 312.14-20.56L312.14-20.56Q312.92-20.75 313.67-20.8 314.43-20.85 315.16-20.9 315.9-20.95 316.68-21.07 317.46-21.19 318.29-21.58L318.29-21.58Q318.92-21.34 319.58-21.34 320.24-21.34 320.88-21.24L320.88-21.24Q321.22-21 321.44-20.7 321.66-20.41 321.66-20.02L321.66-20.02Q321.66-19.34 321.17-18.65 320.68-17.97 320.39-17.38L320.39-17.38 319.85-17.38Q318.68-17.38 317.58-17.07 316.48-16.75 315.38-16.33 314.28-15.92 313.19-15.6 312.09-15.28 310.92-15.28L310.92-15.28Q310.72-15.28 310.7-15.06 310.67-14.84 310.57-14.75L310.57-14.75Q310.33-14.79 309.84-14.79L309.84-14.79Q308.72-14.79 307.69-14.55 306.67-14.31 305.59-14.31L305.59-14.31Q305.3-14.31 305.01-14.33 304.71-14.36 304.42-14.4L304.42-14.4Q304.18-14.01 303.79-13.89 303.4-13.77 303.05-13.48L303.05-13.48Q302.91-13.04 302.88-12.4 302.86-11.77 302.83-11.11 302.81-10.45 302.71-9.86 302.61-9.28 302.32-8.94L302.32-8.94Q302.37-8.69 302.71-8.76 303.05-8.84 303.05-8.45L303.05-8.45Q303.05-8.01 302.96-7.52 302.86-7.03 302.86-6.54L302.86-6.54Q302.86-5.62 303.08-4.52 303.3-3.42 303.76-2.49 304.23-1.56 305.01-0.95 305.79-0.34 306.96-0.34L306.96-0.34Q307.74-0.34 308.42-0.63 309.11-0.93 309.55-1.61L309.55-1.61 309.79-1.66Q309.99-1.66 310.16-1.61 310.33-1.56 310.52-1.56L310.52-1.56Q310.82-1.56 311.28-1.93 311.75-2.29 312.31-2.78 312.87-3.27 313.45-3.74 314.04-4.2 314.58-4.39L314.58-4.39Q314.92-5.08 315.24-5.76 315.55-6.45 316.19-6.84L316.19-6.84 316.19-8.25Q316.68-8.79 317.24-9.23 317.8-9.67 318.09-10.35L318.09-10.35Q318.34-10.25 318.56-10.21 318.78-10.16 319.02-10.16L319.02-10.16Q319.26-10.16 319.53-10.21 319.8-10.25 320.05-10.35L320.05-10.35Q320.44-9.81 320.66-9.16 320.88-8.5 321.22-7.91L321.22-7.91Q320.78-7.03 320.19-5.81 319.61-4.59 318.92-3.37 318.24-2.15 317.48-1.05 316.73 0.05 315.99 0.63L315.99 0.63Q315.85 0.78 315.36 0.98L315.36 0.98Q314.82 1.37 314.38 1.73 313.94 2.1 313.55 2.59L313.55 2.59Q312.14 3.03 310.84 3.76 309.55 4.49 308.28 5.18L308.28 5.18Q307.69 5.03 307.01 5.03L307.01 5.03Q306.42 5.03 305.84 5.1 305.25 5.18 304.57 5.18L304.57 5.18Q304.37 4.93 304.01 4.86 303.64 4.79 303.74 4.35L303.74 4.35Q302.08 4.25 301.05 3.44 300.03 2.64 299.32 1.46 298.61 0.29 298.17-1.07 297.73-2.44 297.24-3.71L297.24-3.71 297.24-3.86Q297.24-4.1 297.44-4.15 297.63-4.2 297.63-4.44L297.63-4.44Q297.63-4.54 297.58-4.59L297.58-4.59Q297.44-5.13 297.34-5.52 297.24-5.91 297.24-6.45L297.24-6.45Q297.24-7.23 297.34-7.98 297.44-8.74 297.44-9.52L297.44-9.52Q297.44-10.3 297.24-10.89L297.24-10.89Q297.44-11.13 297.56-11.55 297.68-11.96 297.73-12.4 297.78-12.84 297.8-13.28 297.83-13.72 297.93-14.06L297.93-14.06Q297.73-14.6 297.58-15.01 297.44-15.43 297.44-16.02L297.44-16.02 297.44-16.36Q297.93-17.19 298.27-18.07 298.61-18.95 299-19.87L299-19.87 299-20.02Q299-21.44 298.9-22.85 298.81-24.27 298.81-25.68L298.81-25.68 298.81-26.61Q298.81-27.1 298.85-27.54L298.85-27.54Q299.25-27.73 299.44-28.08 299.64-28.42 300.03-28.61L300.03-28.61 301.64-28.61 301.93-29.1Q302.08-29.35 302.13-29.64L302.13-29.64Q302.66-29.79 303.18-30.05 303.69-30.32 304.13-30.62L304.13-30.62Q304.81-31.01 305.37-31.32 305.93-31.64 306.5-31.86 307.06-32.08 307.69-32.23 308.33-32.37 309.16-32.47L309.16-32.47Q309.55-32.47 309.67-32.62 309.79-32.76 310.04-32.96L310.04-32.96Q310.62-32.86 311.21-32.79 311.79-32.71 312.38-32.71L312.38-32.71Q313.55-32.71 314.58-33.15L314.58-33.15Q316.04-33.15 317.48-33.2 318.92-33.25 320.39-33.25L320.39-33.25Q321.66-33.25 322.93-33.15 324.2-33.06 325.42-32.81L325.42-32.81Q325.86-32.96 326.39-32.96L326.39-32.96Q326.98-32.96 327.59-32.84 328.2-32.71 328.79-32.81L328.79-32.81Q328.83-32.28 329.05-31.91 329.27-31.54 329.27-31.05ZM389.38-8.5L389.38-8.5Q389.28-7.76 388.87-7.37 388.45-6.98 387.91-6.64L387.91-6.64Q387.67-6.69 387.45-6.71 387.23-6.74 386.99-6.74L386.99-6.74Q385.47-6.79 384.13-6.35 382.79-5.91 381.37-5.71L381.37-5.71Q380.88-5.62 380.47-5.64 380.05-5.66 379.61-5.57L379.61-5.57Q378.05-5.32 376.29-5.18 374.54-5.03 372.78-4.81 371.02-4.59 369.34-4.27 367.65-3.96 366.19-3.37L366.19-3.37Q366.04-3.47 365.89-3.59 365.75-3.71 365.55-3.71L365.55-3.71Q365.06-3.71 364.62-3.56 364.18-3.42 363.74-3.47L363.74-3.47Q363.26-3.17 362.69-3.05 362.13-2.93 361.57-2.86 361.01-2.78 360.47-2.64 359.94-2.49 359.45-2.1L359.45-2.1Q359.06-2.29 358.5-2.32 357.93-2.34 357.74-2.69L357.74-2.69Q356.62-2.15 355.37-2 354.13-1.86 352.86-1.9L352.86-1.9Q352.03-1.95 350.95-2.15 349.88-2.34 348.8-2.71 347.73-3.08 346.8-3.59 345.87-4.1 345.39-4.83L345.39-4.83Q345.04-5.32 344.9-5.91 344.75-6.49 344.21-6.79L344.21-6.79Q344.36-7.91 344.56-8.98 344.75-10.06 344.95-11.18L344.95-11.18Q345.92-12.01 346.8-12.94 347.68-13.87 348.46-14.89L348.46-14.89Q349.39-15.33 350.19-15.97 351-16.6 351.81-17.26 352.61-17.92 353.42-18.55 354.22-19.19 355.15-19.68L355.15-19.68Q355.3-20.02 355.57-20.24 355.83-20.46 356.13-20.68 356.42-20.9 356.66-21.17 356.91-21.44 357.01-21.83L357.01-21.83Q358.72-22.85 359.98-24.41 361.25-25.98 361.64-27.93L361.64-27.93Q360.81-28.61 359.77-28.83 358.72-29.05 357.59-29.15L357.59-29.15Q356.62-29.2 355.57-29.15 354.52-29.1 353.44-29.2L353.44-29.2Q352.37-28.86 351.22-28.76 350.07-28.66 348.95-28.59 347.83-28.52 346.73-28.3 345.63-28.08 344.6-27.49L344.6-27.49Q344.41-27.49 344.24-27.54 344.07-27.59 343.87-27.59L343.87-27.59Q342.31-27.64 340.94-26.98 339.57-26.32 338.26-25.68L338.26-25.68Q338.16-25.49 338.16-25.39L338.16-25.39Q338.16-25.1 338.28-24.83 338.4-24.56 338.4-24.27L338.4-24.27Q338.35-24.22 338.35-24.17 338.35-24.12 338.31-24.07L338.31-24.07Q338.26-23.83 338.18-23.63 338.11-23.44 338.01-23.19L338.01-23.19Q337.48-21.63 337.43-20.12L337.43-20.12Q337.38-18.85 337.43-17.63 337.48-16.41 337.43-15.14L337.43-15.14Q337.33-13.57 336.94-12.21L336.94-12.21Q337.18-11.04 337.38-9.74 337.57-8.45 337.87-7.18 338.16-5.91 338.57-4.71 338.99-3.52 339.67-2.44L339.67-2.44Q339.62-2.34 339.72-2.29 339.82-2.25 339.92-2.25L339.92-2.25 340.31-2.25Q340.55-2.25 340.5-2.05L340.5-2.05Q340.6-1.9 340.65-1.78 340.7-1.66 340.84-1.56L340.84-1.56Q340.94-1.42 340.84-1.17L340.84-1.17Q340.8-0.2 340.36 0.63 339.92 1.46 339.82 2.44L339.82 2.44Q339.23 2.59 338.74 2.59L338.74 2.59Q337.91 2.54 337.28 2.12 336.64 1.71 336.11 1.12 335.57 0.54 335.08-0.07 334.59-0.68 334.01-1.12L334.01-1.12Q333.67-2.49 333.35-4.15 333.03-5.81 332.3-6.98L332.3-6.98Q332.49-7.42 332.49-8.06L332.49-8.06Q332.54-9.03 332.32-9.99 332.1-10.94 332.2-11.91L332.2-11.91Q332.2-12.45 332.32-12.99 332.45-13.53 332.49-14.06L332.49-14.06Q332.54-14.89 332.32-15.67 332.1-16.46 332.15-17.29L332.15-17.29Q332.2-17.68 332.32-18.04 332.45-18.41 332.69-18.7L332.69-18.7Q332.45-19.29 332.54-19.82L332.54-19.82Q332.59-20.65 332.74-21.39 332.89-22.12 332.93-22.85L332.93-22.85Q332.93-23.24 332.89-23.61 332.84-23.97 332.74-24.32L332.74-24.32 332.3-24.46Q332.01-24.46 331.74-24.32 331.47-24.17 331.27-23.97 331.08-23.78 330.93-23.66 330.79-23.54 330.64-23.54L330.64-23.54Q330.54-23.54 330.42-23.56 330.3-23.58 330.2-23.58L330.2-23.58Q330.1-23.58 329.83-23.39 329.56-23.19 329.2-22.97 328.83-22.75 328.49-22.53 328.15-22.31 327.95-22.27L327.95-22.27Q327.42-22.36 327.1-22.63 326.78-22.9 326.51-23.17 326.24-23.44 325.95-23.66 325.66-23.88 325.22-23.83L325.22-23.83Q325.07-24.12 325.05-24.46 325.02-24.8 325.07-25.15L325.07-25.15 325.07-25.93Q325.41-26.56 325.98-26.98 326.54-27.39 327.17-27.69L327.17-27.69 328.44-28.27Q329.08-28.56 329.61-29L329.61-29 330.05-29Q330.93-28.96 331.59-29.35 332.25-29.74 332.84-30.25 333.42-30.76 334.03-31.3 334.64-31.84 335.38-32.13L335.38-32.13Q335.91-31.88 336.5-31.71 337.08-31.54 337.72-31.49L337.72-31.49Q338.35-31.49 339.04-31.69 339.72-31.88 340.11-32.42L340.11-32.42Q340.36-32.32 340.53-32.3 340.7-32.28 340.94-32.28L340.94-32.28Q341.67-32.23 342.41-32.5 343.14-32.76 343.82-33.15L343.82-33.15Q344.8-33.11 345.75-33.28 346.7-33.45 347.66-33.64 348.61-33.84 349.56-34.01 350.51-34.18 351.49-34.13L351.49-34.13Q353.1-34.08 354.66-34.42 356.23-34.77 357.84-34.67L357.84-34.67Q358.96-34.62 360.06-34.5 361.16-34.38 362.28-34.42L362.28-34.42Q362.91-34.13 363.43-33.91 363.94-33.69 364.72-33.79L364.72-33.79Q366.28-32.47 367.55-30.71L367.55-30.71 367.55-29.88Q367.5-28.76 367.16-27.69 366.82-26.61 366.36-25.56 365.89-24.51 365.36-23.51 364.82-22.51 364.33-21.53L364.33-21.53Q361.16-18.65 357.98-15.82 354.81-12.99 351.44-10.35L351.44-10.35Q351.34-9.86 351.17-9.47 351-9.08 350.95-8.64L350.95-8.64Q350.95-8.4 351-8.25L351-8.25Q351.34-8.15 351.61-7.89 351.88-7.62 351.78-7.18L351.78-7.18 352.22-7.18Q352.47-7.18 352.47-6.98L352.47-6.98 353.25-6.93Q355.1-6.84 356.96-7.03 358.81-7.23 360.69-7.47 362.57-7.71 364.43-7.93 366.28-8.15 368.14-8.2L368.14-8.2Q368.58-8.35 369.07-8.45 369.56-8.54 369.95-8.84L369.95-8.84 370.09-8.84Q370.43-8.84 370.6-8.64 370.78-8.45 371.12-8.4L371.12-8.4Q371.36-8.4 371.63-8.5 371.9-8.59 372.19-8.64L372.19-8.64Q372.88-8.84 373.63-8.89 374.39-8.94 375.12-9.03L375.12-9.03Q377.95-9.28 380.74-9.35 383.52-9.42 386.3-10.06L386.3-10.06Q386.55-9.72 386.99-9.59 387.43-9.47 387.91-9.35 388.4-9.23 388.82-9.08 389.23-8.94 389.38-8.5Z" opacity="1" transform="matrix(1,0,0,1,0,0)" fill="#000000" class="wordmark-text-0" data-fill-palette-color="primary" id="text-0"></path></svg></g></svg></g></svg></g></svg></g><g></g></svg></g></svg></g></svg></g></svg></g><defs></defs></svg><rect width="320" height="360" fill="none" stroke="none" visibility="hidden"></rect></g></svg></g></svg>